<svg width="117" height="117" viewBox="0 0 117 117" fill="none" xmlns="http://www.w3.org/2000/svg">
<path d="M26.1942 0.818115H91.8057V4.45448C89.6055 4.57124 88.5785 5.01735 87.4892 7.18175V20.8181C91.497 19.382 93.3012 17.857 95.2589 13.0908V7.18175H116.842V13.0908C111.753 13.608 109.792 15.0121 108.209 19.909V64.909C110.224 69.7239 112.072 71.2834 116.842 71.7272V73.5454L91.8057 92.6363V83.9999C93.6959 83.205 94.5277 82.4964 95.2589 80.3636V24.909C95.3303 23.9444 95.0525 23.9316 93.964 24.909L65.0431 47.6363L87.4892 65.3636V96.0247L59.4316 117.182H58.1366L30.5107 95.8181V30.3636C27.6515 27.7743 26.0462 26.4797 23.1726 24.909V80.8181C24.2611 82.2579 24.9391 83.0136 26.6258 83.9999V93.0908L1.15822 73.0908V71.7272C6.37485 70.8779 8.22078 69.134 9.79131 63.9999V20.3636C8.41332 16.1916 6.92314 14.5771 2.88484 13.0908H0.726562V7.18175H23.1726V13.0908C23.9935 16.2449 25.611 19.0438 30.5107 20.3636V7.18175C29.7151 4.86712 28.821 4.10855 26.1942 3.99993V0.818115ZM73.6762 7.18175H43.892V97.6363C49.165 102.124 52.2466 104.541 58.1366 108.545C58.7861 108.914 59.1585 108.914 59.8633 108.545C66.0093 104.475 69.0006 101.906 74.1079 97.1818V63.9999C64.3166 55.8023 58.5886 51.4921 48.2086 43.9999V34.4545C51.6175 37.9565 53.9307 39.767 58.9999 42.6363L73.6762 31.7272V7.18175Z" fill="white"/>
<path d="M26.1942 0.818115H91.8057V4.45448C89.6055 4.57124 88.5785 5.01735 87.4892 7.18175V20.8181C91.497 19.382 93.3012 17.857 95.2589 13.0908V7.18175H116.842V13.0908C111.753 13.608 109.792 15.0121 108.209 19.909V64.909C110.224 69.7239 112.072 71.2834 116.842 71.7272V73.5454L91.8057 92.6363V83.9999C93.6959 83.205 94.5277 82.4964 95.2589 80.3636V24.909C95.3303 23.9444 95.0525 23.9316 93.964 24.909L65.0431 47.6363L87.4892 65.3636V96.0247L59.4316 117.182H58.1366L30.5107 95.8181V30.3636C27.6515 27.7743 26.0462 26.4797 23.1726 24.909V80.8181C24.2611 82.2579 24.9391 83.0136 26.6258 83.9999V93.0908L1.15822 73.0908V71.7272C6.37485 70.8779 8.22078 69.134 9.79131 63.9999V20.3636C8.41332 16.1916 6.92314 14.5771 2.88484 13.0908H0.726562V7.18175H23.1726V13.0908C23.9935 16.2449 25.611 19.0438 30.5107 20.3636V7.18175C29.7151 4.86712 28.821 4.10855 26.1942 3.99993V0.818115ZM73.6762 7.18175H43.892V97.6363C49.165 102.124 52.2466 104.541 58.1366 108.545C58.7861 108.914 59.1585 108.914 59.8633 108.545C66.0093 104.475 69.0006 101.906 74.1079 97.1818V63.9999C64.3166 55.8023 58.5886 51.4921 48.2086 43.9999V34.4545C51.6175 37.9565 53.9307 39.767 58.9999 42.6363L73.6762 31.7272V7.18175Z" stroke="white"/>
</svg>
